<?xml version="1.0" encoding="UTF-8"?>
<svg width="175px" height="41px" viewBox="0 0 175 41" version="1.1" xmlns="http://www.w3.org/2000/svg" xmlns:xlink="http://www.w3.org/1999/xlink">
    <title>button_file</title>
    <g id="営業側画面（営業員）" stroke="none" stroke-width="1" fill="none" fill-rule="evenodd">
        <g id="ファイル管理画面--WA01010500" transform="translate(-1225.000000, -122.000000)">
            <g id="Group-6" transform="translate(1225.000000, 122.000000)">
                <g id="Group-5">
                    <rect id="Rectangle" fill="#0091FF" x="0" y="0" width="175" height="41" rx="8"></rect>
                    <g id="返信矢印3" transform="translate(8.000000, 8.000000)" fill="#FFFFFF" fill-rule="nonzero">
                        <path d="M29.2962009,13.3620301 C27.0125622,11.0785698 23.8405661,9.6609121 20.3537166,9.66207106 L6.17460931,9.66207106 L13.6555545,2.97548879 C14.3579002,2.3477223 14.4178416,1.26983116 13.7891659,0.568213578 C13.1604901,-0.133919089 12.0818026,-0.193283263 11.3791991,0.434418834 L0.568992181,10.0960991 C0.557583978,10.1061434 0.54978515,10.119407 0.538699213,10.1293869 C0.487845698,10.1771615 0.44311523,10.230409 0.398384761,10.2848154 C0.369187496,10.3192621 0.337863278,10.3520347 0.311953122,10.3891856 C0.270058591,10.4480347 0.236671872,10.5129361 0.20257617,10.5773868 C0.183111326,10.6145377 0.159779295,10.64892 0.143085936,10.6867147 C0.109183593,10.7644934 0.0858515616,10.8465859 0.0636152337,10.9298374 C0.0560742181,10.9587469 0.0436347652,10.9853384 0.0374472652,11.014763 C0.0133417967,11.1285336 0,11.2461673 0,11.3671492 C0,11.4881955 0.0133417967,11.6058292 0.0375117183,11.7190204 C0.0436992183,11.7496039 0.0569765619,11.7778695 0.0647753899,11.8078735 C0.0869472647,11.8894509 0.109763671,11.9710284 0.143085936,12.047133 C0.160037108,12.0859579 0.183691404,12.1209841 0.20360742,12.1587145 C0.237509763,12.2225213 0.270574216,12.2863925 0.311953122,12.3451772 C0.337541012,12.381813 0.368671871,12.4140062 0.397224605,12.4483884 C0.442535151,12.5027949 0.48810351,12.5572013 0.539794916,12.605491 C0.550623041,12.6154709 0.558164056,12.6282838 0.568992181,12.6376842 L11.3791346,22.2998796 C12.0817382,22.9275817 13.1604901,22.8677024 13.7891014,22.1660848 C14.4177772,21.4645317 14.3578358,20.3865761 13.6554901,19.7588096 L6.17460931,13.0722918 L20.353781,13.0722918 C22.9088318,13.0734507 25.2058122,14.1018932 26.8821091,15.7731685 C28.5550544,17.4476632 29.5851442,19.7428418 29.5863044,22.2949218 C29.5863044,23.2362496 30.3502673,24 31.293152,24 C32.2354567,24 33,23.2362496 33,22.2949218 C33.0005797,18.8114295 31.5820309,15.643237 29.2962009,13.3620301 Z" id="Path"></path>
                    </g>
                </g>
                <g id="Group-4" transform="translate(47.000000, 14.000000)" fill="#FFFFFF" font-family="HiraginoSans-W3, Hiragino Sans" font-size="12" font-weight="300">
                    <text id="モード選択画面に戻る">
                        <tspan x="0" y="11">モード選択画面に戻る</tspan>
                    </text>
                </g>
            </g>
        </g>
    </g>
</svg>