<?xml version="1.0" encoding="UTF-8"?>
<svg width="327px" height="84px" viewBox="0 0 327 84" version="1.1" xmlns="http://www.w3.org/2000/svg" xmlns:xlink="http://www.w3.org/1999/xlink">
    <title>Group</title>
    <defs>
        <filter id="filter-1">
            <feColorMatrix in="SourceGraphic" type="matrix" values="0 0 0 0 1.000000 0 0 0 0 1.000000 0 0 0 0 1.000000 0 0 0 1.000000 0"></feColorMatrix>
        </filter>
    </defs>
    <g id="営業側画面（管理者）" stroke="none" stroke-width="1" fill="none" fill-rule="evenodd">
        <g id="モード選択画面（管理者）-WA01020300" transform="translate(-556.000000, -362.000000)">
            <g id="Group" transform="translate(556.000000, 362.000000)">
                <g id="Group-2">
                    <rect id="Rectangle" fill="#0091FF" x="0" y="0" width="327" height="84" rx="8"></rect>
                    <text id="従業員管理" font-family="HiraginoSans-W3, Hiragino Sans" font-size="24" font-weight="300" fill="#FFFFFF">
                        <tspan x="68" y="50.5409836">従業員管理</tspan>
                    </text>
                </g>
                <g filter="url(#filter-1)" id="コールセンターの人物アイコン素材-その3">
                    <g transform="translate(255.000000, 7.000000)">
                        <path d="M53.9423131,58.2509652 L53.4492487,55.393718 C53.0257504,52.9339595 51.316976,50.7957771 48.8786399,49.6748779 L38.4985236,44.8987664 C37.224096,44.3136011 36.859722,42.4631804 36.8229727,42.3630953 C36.7105551,42.1966036 36.5202995,42.0963826 36.2280681,42.0963826 C36.2193893,42.0963826 36.2104393,42.0963826 36.2017604,42.0963826 C35.9530586,42.1280242 35.749378,42.2966887 35.6821173,42.5275499 L34.4843072,46.737644 L27.0001981,60.3386298 L19.5348025,46.7828656 L18.3169228,42.5275499 C18.252103,42.2977751 18.04788,42.1280242 17.7060166,42.09 C17.4906739,42.09 17.2928243,42.1922579 17.1435219,42.4443041 C17.1399961,42.4633162 16.7795547,44.3115641 15.5016013,44.8987664 L5.1198577,49.6748779 C2.68247088,50.7967277 0.974238898,52.9338237 0.550469353,55.393718 L0.057405012,58.2509652 C-0.136240719,59.3706422 0.13931119,60.9353382 1.2019218,61.7261058 C1.32695077,61.8199441 1.4838472,61.9591398 1.68251036,62.136224 C3.59320249,63.833733 9.40759186,69 27.0001981,69 C44.5894141,69 50.4052951,63.833733 52.3165297,62.136224 C52.5154641,61.9602262 52.6729029,61.8199441 52.7982031,61.7261058 C53.8612205,60.9342518 54.1365012,59.3695558 53.9423131,58.2509652 Z" id="Path" fill="#4B4B4B" fill-rule="nonzero"></path>
                        <path d="M31.4983727,17.4096234 C33.9618703,22.1131905 37.3356005,28.557103 38.8081214,29.4927363 L39.0875391,29.67 L40.1117167,21.5341112 C40.3924624,17.9601946 39.2631048,14.577323 36.9321447,12.0083509 C34.3841842,9.20023503 30.6379413,7.59 26.6541137,7.59 C22.6700204,7.59 18.9236448,9.20023503 16.3756843,12.0083509 C14.0444586,14.5762421 12.9148353,17.9601946 13.1961123,21.542488 L14.1278589,29.5966355 L14.4395478,29.250485 C15.0824477,28.5381877 16.2408892,27.794545 17.7073011,26.8525616 C21.0988269,24.6748666 26.1963414,21.4021092 30.2000895,14.9456315 C30.5708758,15.6379325 31.0124461,16.481286 31.4983727,17.4096234 Z" id="Path" fill="#4B4B4B" fill-rule="nonzero"></path>
                        <path d="M6.27525329,32.6095202 C6.44938267,33.3324294 7.09081982,33.8373909 7.83501081,33.8373909 C7.96079336,33.8373909 8.08671059,33.8216697 8.21006907,33.7925114 L10.9137206,33.1445806 C11.4295099,33.0214979 11.8469894,32.649025 12.0343165,32.1534694 L12.1456893,32.1607253 L12.0950531,31.9583645 C12.1559243,31.7038682 12.1575404,31.454478 12.1000359,31.2144936 L10.690571,25.3942683 C10.3525473,23.3651509 10.1811113,21.6303032 10.1811113,20.2354109 C10.1811113,10.9819044 17.7261791,3.45397416 27.0001509,3.45397416 C36.2738534,3.45397416 43.8187865,10.9819044 43.8187865,20.2354109 C43.8187865,21.6292282 43.6473506,23.3651509 43.284682,25.4589002 L41.8998619,31.2144936 C41.8795266,31.3000871 41.8670022,31.3866212 41.8621541,31.4774552 L41.806939,31.6005379 C41.7886238,31.6412519 39.9246449,35.6629382 34.134742,36.7968844 C33.8341567,36.2430124 33.2543988,35.8933823 32.6135003,35.8933823 L29.1249872,35.8933823 C28.1707097,35.8933823 27.3943324,36.6685613 27.3943324,37.6209741 L27.3943324,38.9824083 C27.3943324,39.934821 28.1707097,40.71 29.1249872,40.71 L32.6135003,40.71 C33.3391068,40.71 33.9868734,40.2488431 34.2338597,39.5718883 C37.6992095,38.9793178 40.0168944,37.5240935 41.3560611,36.3994188 C42.7435746,35.2352393 43.5730123,34.0427079 43.9799875,33.3594378 L45.7900981,33.7923771 C45.9131872,33.8215353 46.0392391,33.8372566 46.1650217,33.8372566 C46.9092127,33.8372566 47.5503805,33.3322951 47.7245099,32.6093859 L49.1094646,26.8537925 C49.3156457,25.9951698 48.7836959,25.1292912 47.9235533,24.9227649 L46.9237571,24.6838555 C47.1610471,23.0000683 47.2814428,21.50413 47.2814428,20.2354109 C47.2811735,9.07828835 38.1830817,0 27.0001509,0 C15.8172201,0 6.71912834,9.07828835 6.71912834,20.2356797 C6.71912834,21.5042644 6.83938939,23.0002027 7.07667938,24.6830493 L6.07607514,24.9230337 C5.21579789,25.12956 4.68411746,25.9954386 4.89070251,26.8540612 L6.27525329,32.6095202 Z" id="Path" fill="#4B4B4B" fill-rule="nonzero"></path>
                    </g>
                </g>
            </g>
        </g>
    </g>
</svg>