<?xml version="1.0" encoding="UTF-8"?>
<svg width="331px" height="85px" viewBox="0 0 331 85" version="1.1" xmlns="http://www.w3.org/2000/svg" xmlns:xlink="http://www.w3.org/1999/xlink">
    <title>button_remote</title>
    <defs>
        <filter id="filter-1">
            <feColorMatrix in="SourceGraphic" type="matrix" values="0 0 0 0 1.000000 0 0 0 0 1.000000 0 0 0 0 1.000000 0 0 0 1.000000 0"></feColorMatrix>
        </filter>
    </defs>
    <g id="営業側画面（営業員）" stroke="none" stroke-width="1" fill="none" fill-rule="evenodd">
        <g id="モード選択画面-WA01010400" transform="translate(-794.000000, -583.000000)">
            <g id="button_remote" transform="translate(794.000000, 583.000000)">
                <g id="Group-2">
                    <rect id="Rectangle" fill="#0091FF" x="0" y="0" width="331" height="85" rx="8"></rect>
                    <text id="リモート相談ツールを起動-(別ウインドウ" font-family="HiraginoSans-W3, Hiragino Sans" font-size="18" font-weight="300" fill="#FFFFFF">
                        <tspan x="23" y="42.3196721">リモート相談ツールを起動</tspan>
                        <tspan x="49.016" y="60.3196721" font-size="14">(別ウインドウが開きます)</tspan>
                    </text>
                </g>
                <g filter="url(#filter-1)" id="テレフォンオペレーター">
                    <g transform="translate(251.000000, 8.000000)">
                        <path d="M60.913954,26.0378906 C60.4781054,14.3457422 52.669415,4.55188281 42.0261235,1.22134375 L42.0261235,20.584875 C46.4328173,21.694125 49.7020783,25.6923125 49.7020783,30.4681172 C49.7020783,36.1009609 45.1605356,40.6678516 39.5589562,40.6678516 C39.0813717,40.6678516 38.6144854,40.6225625 38.1549953,40.5590781 C37.8808069,41.3612656 37.5424298,42.1775312 37.1098831,42.9937969 C35.7306203,45.5943984 33.4302641,48.1454609 29.9511354,49.7325703 C28.4335898,50.4261172 26.6796292,50.9106172 24.7231972,51.1787656 C24.2081033,52.2943906 23.0921988,53.0729375 21.7880869,53.0729375 L17.3973742,53.0729375 C15.6069609,53.0729375 14.1559812,51.6138594 14.1559812,49.8143828 C14.1559812,48.0118516 15.6069609,46.5527734 17.3973742,46.5527734 L21.7880869,46.5527734 C22.8684632,46.5527734 23.818349,47.0890703 24.407273,47.9063984 C27.2814965,47.4972031 29.4135888,46.5020391 31.0295306,45.2456328 C33.0759059,43.6485625 34.3201877,41.56925 35.0142437,39.578125 C31.6978318,37.9004375 29.415702,34.4567422 29.415702,30.4681172 C29.415702,25.8915312 32.4140764,22.0181875 36.5432799,20.7269844 L36.5432799,0.12059375 C35.7134505,0.0431640625 34.872923,0 34.022622,0 C19.1568819,0 7.10659187,12.1164844 7.10328999,27.0653281 C5.09759385,30.9482344 0.287277829,40.8099609 0.287277829,40.8099609 C-0.0821369014,41.5529141 -0.0960048123,42.4241641 0.249900508,43.1790703 C0.595673752,43.9339766 1.26291838,44.4884687 2.06382325,44.690875 L6.46298873,45.7978672 C6.46298873,45.7978672 8.7031186,55.9718359 9.21504263,58.333375 C9.98821168,61.9084219 11.1383238,62.6825859 14.5008299,62.6825859 C17.8665058,62.6825859 21.8447472,61.5875469 21.8447472,61.5875469 L21.8447472,68 L50.685115,68 L50.685115,57.8496719 C50.685115,54.1755469 51.6917933,49.565625 54.5315452,46.1187422 C60.242483,39.1881875 61.3529725,31.7731328 60.913954,26.0378906 Z" id="Path" fill="#4B4B4B" fill-rule="nonzero"></path>
                    </g>
                </g>
            </g>
        </g>
    </g>
</svg>