<?xml version="1.0" encoding="utf-8"?>
<svg width="30px" height="28px" viewBox="0 0 30 28" version="1.1" xmlns:xlink="http://www.w3.org/1999/xlink" xmlns="http://www.w3.org/2000/svg">
  <desc>Created with Lunacy</desc>
  <g id="虫眼鏡アイコン9">
    <path d="M17.928 2.92564C13.832 -0.975213 7.16808 -0.975213 3.07206 2.92564C-1.02402 6.82649 -1.02402 13.1735 3.07206 17.0744C7.16808 20.9752 13.832 20.9752 17.928 17.0744C22.024 13.1735 22.024 6.82649 17.928 2.92564ZM16.4694 15.6853C13.1729 18.8242 7.82715 18.8242 4.53061 15.6847C1.23408 12.5452 1.23408 7.45421 4.53061 4.31535C7.82715 1.17589 13.1723 1.17589 16.4688 4.31535C19.7653 7.45481 19.766 12.5452 16.4694 15.6853Z" id="Shape" fill="#3AABD2" stroke="none" />
    <path d="M10.2633 7.44208L2.90868 0.290503C2.5064 -0.100842 1.86402 -0.0959705 1.46656 0.300134L0.300297 1.46437C-0.0964967 1.86047 -0.100822 2.50179 0.291814 2.90277L7.45529 10.2445C8.25076 11.2035 9.42606 11.2603 10.334 10.3533C11.2432 9.44746 11.2233 8.23617 10.2633 7.44208Z" transform="translate(19 17)" id="Path" fill="#3AABD2" fill-rule="evenodd" stroke="none" />
  </g>
</svg>