<?xml version="1.0" encoding="UTF-8"?>
<svg width="25px" height="28px" viewBox="0 0 25 28" version="1.1" xmlns="http://www.w3.org/2000/svg" xmlns:xlink="http://www.w3.org/1999/xlink">
    <title>ゴミ箱のアイコン素材</title>
    <g id="Symbols" stroke="none" stroke-width="1" fill="none" fill-rule="evenodd">
        <g id="icon/trash" fill="#4B4B4B" fill-rule="nonzero">
            <g id="ゴミ箱のアイコン素材">
                <path d="M2.61701391,24.5845954 C2.61701391,25.3054748 2.70706099,25.9737179 2.90968079,26.5319771 C3.18437155,27.270402 3.65729904,27.8022347 4.36879858,27.9560281 C4.51294049,27.9824546 4.66157642,28 4.81914495,28 L20.2078192,28 C20.248321,28 20.2844397,28 20.3158425,27.9955595 C21.7840593,27.9033376 22.3829861,26.4132746 22.3829861,24.5845954 L23,10 L2,10 L2.61701391,24.5845954 Z M16.6905459,13.2527302 L19.613331,13.2527302 L19.613331,24.7472698 L16.6905459,24.7472698 L16.6905459,13.2527302 Z M11.038552,13.2527302 L13.961448,13.2527302 L13.961448,24.7472698 L11.038552,24.7472698 L11.038552,13.2527302 Z M5.38666903,13.2527302 L8.31400362,13.2527302 L8.31400362,24.7472698 L5.38666903,24.7472698 L5.38666903,13.2527302 L5.38666903,13.2527302 Z" id="Shape"></path>
                <path d="M18.696459,4.70343447 C18.7007489,4.59660767 18.7097686,4.48962284 18.7097686,4.38263801 L18.7097686,4.08775811 C18.7097686,1.83443953 16.7946115,0 14.4418864,0 L10.5534387,0 C8.20071366,0 6.28555652,1.83438685 6.28555652,4.08775811 L6.28555652,4.38263801 C6.28555652,4.48962284 6.29446627,4.59660767 6.30348602,4.70343447 L0,4.70343447 L0,8 L25,8 L25,4.70343447 L18.696459,4.70343447 Z M16.0311775,4.38263801 C16.0311775,4.49394227 16.0178679,4.60076907 15.9955385,4.70343447 L8.9999516,4.70343447 C8.97762222,4.60076907 8.96420259,4.49394227 8.96420259,4.38263801 L8.96420259,4.08775811 C8.96420259,3.24968394 9.67841288,2.56552887 10.5534937,2.56552887 L14.4419414,2.56552887 C15.3213671,2.56552887 16.0311775,3.24968394 16.0311775,4.08775811 L16.0311775,4.38263801 Z" id="Shape"></path>
            </g>
        </g>
    </g>
</svg>